# xmcd
#
# Track frame offsets: 
#        150
#        13199
#        36611
#        54247
#        67248
#        79575
#        91801
#        105342
#        120037
#        137957
#        154075
#
# Disc length: 2300 seconds
#
# Revision: 3
# Processed by: cddbd v1.5.2PL0 Copyright (c) Steve Scherf et al.
# Submitted via: ExactAudioCopy v1.0b3
#
DISCID=8708fa0b
DTITLE=Blues Band - These Kind Of Blues
DYEAR=2005
DGENRE=Blues
TTITLE0=Tobacco Road
TTITLE1=Doing Allright
TTITLE2=Time After Time
TTITLE3=Stealing
TTITLE4=That's It I Quit
TTITLE5=Bad Penny Blues
TTITLE6=Let The Four Winds Blow
TTITLE7=Bad Luck
TTITLE8=Hardworking Man
TTITLE9=These Kind Of Blues
TTITLE10=Smokestack Lightning
EXTD=
EXTT0=
EXTT1=
EXTT2=
EXTT3=
EXTT4=
EXTT5=
EXTT6=
EXTT7=
EXTT8=
EXTT9=
EXTT10=
PLAYORDER=
